<?xml version="1.0" encoding="utf-8"?>
<!-- Generator: Adobe Illustrator 24.1.1, SVG Export Plug-In . SVG Version: 6.00 Build 0)  -->
<svg version="1.1" id="Calque_1" xmlns="http://www.w3.org/2000/svg" xmlns:xlink="http://www.w3.org/1999/xlink" x="0px" y="0px"
	 viewBox="0 0 300 300" style="enable-background:new 0 0 300 300;" xml:space="preserve">
<style type="text/css">
	.st0{fill:#041728;}
	.st1{fill:#569BC5;}
</style>
<g transform="translate(0.000000,300.000000) scale(0.100000,-0.100000)">
	<path class="st0" d="M1625.9,2263.7c-30.5-2.4-125.5-11-213.3-18.3c-253.5-20.7-379.1-56.1-441.2-123.1
		c-14.6-14.6-60.9-93.9-102.4-174.3c-42.7-80.4-81.7-149.9-89-156c-7.3-4.9-32.9-7.3-56.1-6.1l-42.7,3.7l-3.7,101.2
		c-3.7,96.3-1.2,103.6,28,130.4c40.2,37.8,39,82.9-2.4,114.6c-36.6,29.3-70.7,24.4-103.6-13.4c-30.5-34.1-26.8-67,8.5-102.4
		c26.8-26.8,30.5-40.2,30.5-125.5v-95.1l-132.9-8.5c-168.2-9.8-242.6-34.1-318.1-101.2c-89-80.4-109.7-132.9-109.7-281.6
		c0-110.9-2.4-124.3-24.4-136.5c-13.4-7.3-29.3-24.4-36.6-37.8c-18.3-32.9,11-79.2,58.5-90.2c29.3-6.1,37.8-17.1,56.1-71.9
		c13.4-45.1,35.3-79.2,67-108.5l46.3-41.4l-85.3-7.3c-90.2-7.3-101.2-12.2-87.8-31.7c4.9-8.5,60.9-13.4,147.5-13.4
		c136.5,0,139,0,139-26.8c0-87.8,58.5-182.8,129.2-212.1c31.7-13.4,190.1-17.1,804.5-17.1l765.5-1.2l63.4-59.7l64.6-60.9H2484
		c184.1,0,299.9-4.9,299.9-12.2c0-18.3,47.5-39,73.1-30.5c13.4,4.9,30.5,18.3,37.8,31.7c29.3,54.9-58.5,113.4-98.7,65.8
		c-12.2-15.8-62.2-18.3-298.6-18.3h-284l-69.5,62.2l-68.3,63.4l-782.5,2.4c-552.2,2.4-791.1,7.3-809.4,15.8
		c-40.2,21.9-76.8,91.4-76.8,147.5c0,45.1,2.4,50,30.5,50c23.2,0,34.1-9.8,47.5-42.7c9.8-23.2,36.6-53.6,58.5-67
		c37.8-21.9,60.9-24.4,332.8-24.4c237.7-1.2,297.4-3.7,315.7-18.3c30.5-23.2,60.9-23.2,80.4,0c23.2,28,1134.8,28,1158,0
		c19.5-23.2,81.7-23.2,93.9,0c8.5,13.4,46.3,18.3,186.5,20.7c157.2,3.7,176.7,6.1,180.4,25.6s-11,20.7-179.2,20.7
		c-109.7,0-184.1,4.9-184.1,12.2c0,6.1-12.2,17.1-25.6,25.6c-21.9,11-32.9,8.5-60.9-12.2C2407.2,784,2396.2,784,1855,784
		c-537.5,0-553.4,1.2-574.1,24.4c-26.8,31.7-76.8,31.7-96.3,0c-14.6-23.2-29.3-24.4-316.9-24.4H566.7l-24.4,31.7
		c-14.6,18.3-25.6,37.8-25.6,42.7c0,6.1,541.2,12.2,1204.3,13.4c1059.2,3.7,1203.1,6.1,1203.1,21.9c0,13.4-19.5,19.5-78,24.4
		l-76.8,6.1l26.8,24.4c36.6,32.9,68.3,98.7,79.2,162.1c7.3,47.5,11,51.2,47.5,51.2c56.1,0,89,37.8,70.7,79.2
		c-7.3,17.1-19.5,30.5-25.6,30.5c-17.1,0-25.6,69.5-12.2,108.5c15.8,46.3-8.5,103.6-46.3,108.5c-18.3,2.4-31.7,18.3-41.4,48.8
		c-7.3,24.4-40.2,100-71.9,167c-31.7,67-78,182.8-103.6,256c-63.4,186.5-103.6,224.3-296.2,276.7c-80.4,20.7-136.5,25.6-404.7,28
		C1820.9,2267.4,1656.4,2266.1,1625.9,2263.7z M1653.9,2213.7c-35.3-11-64.6-23.2-64.6-29.3c0-15.8,11-13.4,110.9,20.7
		c87.8,30.5,95.1,30.5,334,24.4c252.3-6.1,369.3-23.2,477.8-69.5c30.5-13.4,53.6-25.6,50-29.3c-2.4-2.4-64.6,4.9-139,18.3
		c-146.3,26.8-479,45.1-568,31.7c-31.7-4.9-69.5-18.3-82.9-29.3c-17.1-13.4-47.5-82.9-82.9-185.3l-57.3-164.6l-107.3-3.7l-107.3-3.7
		l8.5,31.7l7.3,30.5H1248c-184.1,0-231.6-8.5-231.6-42.7c0-14.6-19.5-18.3-91.4-18.3h-91.4l65.8,131.6
		c87.8,175.5,113.4,203.6,206,232.8c96.3,29.3,412,69.5,569.2,71.9C1713.6,2232,1711.2,2230.8,1653.9,2213.7z M2101.3,1959
		c4.9-160.9,9.8-201.1,26.8-219.4c21.9-25.6,30.5-142.6,24.4-366.9l-2.4-125.5h-242.6h-242.6l-8.5,137.7
		c-4.9,74.4-6.1,152.4-3.7,171.9l3.7,35.3l219.4,4.9c120.7,3.7,221.8,8.5,224.3,11c2.4,2.4-96.3,4.9-220.6,4.9h-226.7l-4.9,52.4
		c-3.7,28,0,64.6,6.1,81.7c6.1,17.1,13.4,39,14.6,48.8c4.9,40.2,91.4,299.9,107.3,321.8c21.9,29.3,87.8,41.4,215.7,40.2l103.6-2.4
		L2101.3,1959z M2341.4,2134.5c142.6-20.7,149.9-31.7,149.9-220.6c0-120.7,3.7-154.8,18.3-167c37.8-30.5,20.7-48.8-43.9-48.8
		c-43.9,0-59.7-4.9-56.1-14.6c2.4-9.8,26.8-15.8,62.2-15.8h57.3l-7.3-42.7c-12.2-71.9-81.7-337.6-92.6-354.7
		c-7.3-12.2-45.1-18.3-125.5-20.7l-115.8-4.9l-3.7,236.5c-3.7,223.1-4.9,237.7-30.5,270.6c-26.8,32.9-28,46.3-28,215.7v181.6h60.9
		C2219.5,2149.1,2289,2143,2341.4,2134.5z M672.7,2097.9c-8.5-23.2-46.3-26.8-46.3-4.9c0,12.2,11,19.5,25.6,19.5
		C666.6,2112.6,675.1,2106.5,672.7,2097.9z M2598.6,2076c9.8-4.9,40.2-76.8,69.5-159.7c29.3-82.9,65.8-175.5,82.9-206
		s34.1-67,37.8-81.7c8.5-25.6,7.3-26.8-75.6-19.5c-47.5,3.7-101.2,2.4-119.5-3.7c-26.8-8.5-6.1-12.2,91.4-17.1
		c82.9-3.7,129.2-11,131.6-20.7c3.7-9.8-32.9-15.8-132.9-18.3c-75.6-2.4-139-2.4-141.4-2.4c-2.4,1.2,2.4,36.6,9.8,78
		c12.2,67,11,79.2-8.5,107.3c-17.1,26.8-23.2,65.8-28,201.1l-6.1,168.2l36.6-8.5C2566.9,2089.4,2590,2080.9,2598.6,2076z
		 M1067.6,1750.6c-65.8-23.2-131.6-87.8-163.3-159.7c-20.7-46.3-24.4-75.6-20.7-184.1l4.9-129.2l-89-3.7c-70.7-2.4-89,0-95.1,15.8
		c-9.8,25.6-97.5,25.6-107.3,0c-6.1-15.8-30.5-18.3-148.7-15.8c-101.2,2.4-145,8.5-148.7,19.5c-2.4,7.3-23.2,14.6-45.1,14.6
		c-30.5,0-42.7,6.1-48.8,25.6c-6.1,18.3-17.1,23.2-40.2,20.7c-45.1-4.9-47.5-59.7-2.4-71.9l30.5-8.5l-31.7-1.2
		c-42.7-1.2-47.5,14.6-47.5,147.5c0,75.6,6.1,123.1,19.5,151.1c30.5,63.4,115.8,135.3,190.1,157.2c64.6,19.5,349.8,39,314.5,21.9
		c-63.4-32.9-158.5-108.5-158.5-128c0-4.9,24.4,8.5,54.9,31.7c71.9,56.1,170.6,91.4,277.9,100l87.8,7.3l-86.5-43.9
		c-93.9-47.5-147.5-92.6-90.2-74.4c17.1,4.9,54.9,23.2,84.1,40.2c63.4,36.6,223.1,86.5,275.5,86.5
		C1117.6,1768.8,1116.4,1767.6,1067.6,1750.6z M1578.4,1692l-31.7-79.2l-140.2-1.2c-76.8,0-167-8.5-201.1-17.1l-60.9-17.1l60.9,4.9
		c34.1,2.4,141.4,8.5,241.3,13.4l179.2,7.3v-179.2v-179.2l-60.9,4.9c-36.6,2.4-59.7-1.2-57.3-8.5c2.4-7.3,171.9-12.2,472.9-12.2
		h468.1l26.8,85.3c13.4,47.5,32.9,109.7,42.7,140.2l15.8,54.9l148.7,3.7c141.4,2.4,149.9,2.4,163.3-23.2
		c24.4-46.3,71.9-196.2,64.6-207.2c-12.2-20.7-26.8-11-41.4,26.8c-26.8,62.2-58.5,74.4-181.6,70.7c-124.3-6.1-142.6-15.8-184.1-106
		c-14.6-31.7-35.3-64.6-46.3-71.9c-14.6-12.2-130.4-15.8-483.9-15.8h-465.6l-13.4,28c-7.3,14.6-25.6,57.3-40.2,93.9
		c-60.9,162.1-180.4,234-290.1,178c-47.5-25.6-117-106-136.5-158.5c-13.4-37.8-20.7-43.9-54.9-43.9c-37.8,0-40.2,3.7-52.4,60.9
		c-31.7,148.7-7.3,252.3,80.4,330.3c81.7,74.4,168.2,92.6,437.6,95.1l173.1,1.2L1578.4,1692z M1622.2,1655.5
		c2.4-31.7-1.2-42.7-14.6-42.7c-21.9,0-23.2,11-6.1,53.6C1616.1,1707.9,1619.8,1706.7,1622.2,1655.5z M2930.1,1414.1
		c0-21.9-2.4-23.2-12.2-8.5c-15.8,24.4-15.8,52.4,0,42.7C2925.2,1444.6,2930.1,1428.8,2930.1,1414.1z M1288.3,1388.5
		c119.5-48.8,164.6-223.1,93.9-360.8c-51.2-101.2-157.2-124.3-234-52.4c-52.4,48.8-70.7,100-70.7,195c0,121.9,47.5,206,128,226.7
		C1244.4,1406.8,1246.8,1406.8,1288.3,1388.5z M185.1,1322.7c2.4-8.5-3.7-14.6-14.6-14.6s-19.5,8.5-19.5,19.5
		C151,1348.3,177.8,1344.7,185.1,1322.7z M2820.4,1258.1c7.3-13.4,13.4-59.7,13.4-102.4c0-236.5-220.6-307.2-301.1-95.1
		c-28,71.9-17.1,168.2,24.4,209.7l30.5,29.3l-18.3-53.6c-29.3-81.7-13.4-170.6,36.6-224.3c23.2-23.2,52.4-42.7,65.8-42.7
		c84.1,0,143.8,91.4,132.9,203.6c-3.7,36.6-15.8,80.4-26.8,97.5c-19.5,29.3-19.5,29.3,4.9,17.1
		C2796,1288.6,2813.1,1271.5,2820.4,1258.1z M2719.2,1277.6c58.5-40.2,65.8-165.8,14.6-230.4c-31.7-40.2-71.9-40.2-109.7,0
		c-25.6,26.8-29.3,42.7-29.3,117s3.7,87.8,29.3,108.5C2658.3,1300.8,2683.9,1302,2719.2,1277.6z M252.2,1230.1
		c-4.9-42.7-1.2-58.5,19.5-79.2c23.2-23.2,23.2-25.6,3.7-25.6c-36.6,0-51.2,26.8-51.2,93.9c0,46.3,4.9,64.6,17.1,64.6
		S255.8,1270.3,252.2,1230.1z M653.2,1227.6c-3.7-40.2,1.2-60.9,15.8-79.2c17.1-18.3,18.3-23.2,4.9-23.2
		c-24.4,0-45.1,15.8-47.5,36.6c-7.3,51.2,1.2,121.9,15.8,121.9C652,1283.7,655.6,1266.6,653.2,1227.6z M187.6,1210.6
		c0-35.3-2.4-36.6-53.6-36.6c-34.1,0-62.2,7.3-74.4,19.5c-30.5,30.5-1.2,53.6,68.3,53.6C186.4,1247.1,187.6,1245.9,187.6,1210.6z
		 M589.8,1210.6V1174H437.5c-151.1,0-152.4,0-152.4,28c0,15.8,3.7,32.9,8.5,36.6c3.7,4.9,73.1,8.5,152.4,8.5h143.8V1210.6z
		 M1004.2,1228.9c8.5-9.8,12.2-26.8,7.3-36.6c-4.9-14.6-34.1-18.3-164.6-18.3c-163.3,0-174.3,3.7-162.1,52.4
		c4.9,18.3,23.2,20.7,154.8,20.7C956.7,1247.1,992.1,1243.5,1004.2,1228.9z M2958.2,1216.7c1.2-6.1-7.3-13.4-18.3-15.8
		c-13.4-2.4-21.9,3.7-21.9,15.8C2917.9,1237.4,2954.5,1238.6,2958.2,1216.7z M1544.2,1052.1c4.9-19.5,29.3-59.7,56.1-89l48.8-53.6
		l-69.5-2.4c-37.8-1.2-108.5,1.2-157.2,6.1l-87.8,7.3l35.3,29.3c18.3,15.8,43.9,53.6,56.1,84.1c19.5,45.1,29.3,54.9,59.7,57.3
		C1534.5,1097.2,1535.7,1094.8,1544.2,1052.1z M2419.4,1055.8c7.3-23.2,32.9-64.6,56.1-89l41.4-46.3l-34.1-6.1
		c-32.9-6.1-625.3-8.5-625.3-2.4c0,1.2,18.3,23.2,41.4,46.3c23.2,24.4,48.8,63.4,56.1,86.5l13.4,42.7l100,3.7
		c54.9,2.4,153.6,4.9,218.2,6.1l118.2,2.4L2419.4,1055.8z M977.4,1037.5c13.4-29.3,37.8-65.8,56.1-81.7
		c17.1-17.1,31.7-34.1,31.7-40.2c0-12.2-284-13.4-465.6-2.4l-128,8.5l46.3,41.4c25.6,23.2,52.4,60.9,59.7,84.1l14.6,41.4h180.4
		h181.6L977.4,1037.5z M1254.1,784c12.2-19.5-19.5-52.4-34.1-37.8c-13.4,13.4-2.4,50,14.6,50C1240.7,796.1,1250.5,790.1,1254.1,784z
		 M2497.4,759.6c0-26.8-35.3-21.9-40.2,3.7c-3.7,17.1,1.2,21.9,18.3,18.3C2487.7,779.1,2497.4,769.3,2497.4,759.6z M2857,512.1
		c0-9.8-3.7-20.7-8.5-24.4c-11-11-41.4,15.8-32.9,29.3C2825.3,534.1,2857,530.4,2857,512.1z"/>
	<path class="st0" d="M1296.8,2152.8c-113.4-6.1-236.5-28-263.3-46.3c-32.9-20.7-114.6-164.6-114.6-199.9c0-14.6,8.5-29.3,18.3-32.9
		c11-4.9,160.9-2.4,336.4,3.7c365.7,13.4,346.2,6.1,396.1,142.6c35.3,97.5,28,121.9-40.2,134.1
		C1584.4,2161.3,1428.4,2160.1,1296.8,2152.8z M1323.6,2071.1c63.4-28,82.9-48.8,82.9-86.5c0-9.8-12.2-20.7-26.8-25.6
		c-15.8-4.9-41.4-18.3-59.7-31.7c-24.4-18.3-47.5-21.9-103.6-19.5l-71.9,3.7l58.5,26.8c32.9,15.8,56.1,32.9,51.2,39
		c-8.5,14.6-35.3,4.9-126.8-41.4c-64.6-31.7-171.9-42.7-171.9-17.1c0,24.4,74.4,143.8,101.2,163.3
		C1100.5,2112.6,1243.2,2106.5,1323.6,2071.1z M1497.9,2002.9c-3.7-6.1-17.1-12.2-28-12.2c-18.3,0-18.3,2.4-2.4,12.2
		C1491.8,2018.7,1507.7,2018.7,1497.9,2002.9z M1439.4,1982.1c-4.9-3.7-12.2-3.7-17.1,0c-3.7,4.9,0,8.5,8.5,8.5
		S1443.1,1987,1439.4,1982.1z M1447.9,1930.9c3.7-6.1-6.1-13.4-23.2-15.8c-29.3-6.1-39,2.4-21.9,18.3
		C1413.8,1945.6,1440.6,1944.4,1447.9,1930.9z"/>
	<path class="st0" d="M1806.3,2112.6c-23.2-14.6-100-248.7-91.4-281.6c3.7-12.2-1.2-24.4-11-28c-23.2-8.5-21.9-39,3.7-48.8
		c12.2-4.9,28,1.2,42.7,17.1c20.7,21.9,37.8,24.4,156,24.4c174.3,0,173.1-2.4,163.3,168.2c-4.9,71.9-13.4,137.7-20.7,146.3
		C2034.2,2128.4,1838,2129.6,1806.3,2112.6z M1873.3,1890.7c2.4-8.5,1.2-28-4.9-42.7c-8.5-24.4-19.5-28-73.1-28
		c-58.5,0-62.2,1.2-54.9,28c3.7,14.6,7.3,30.5,7.3,35.3C1747.8,1904.1,1864.8,1910.2,1873.3,1890.7z"/>
	<path class="st0" d="M2028.1,1692c0-13.4,14.6-18.3,54.9-18.3s54.9,4.9,54.9,18.3s-14.6,18.3-54.9,18.3S2028.1,1705.5,2028.1,1692z
		"/>
	<path class="st0" d="M2165.9,2111.3c-11-11-15.8-58.5-15.8-146.3c0-170.6-1.2-169.4,164.6-169.4c146.3,0,139-8.5,148.7,147.5
		c9.8,146.3-3.7,157.2-203.6,176.7C2202.4,2124.8,2176.8,2122.3,2165.9,2111.3z"/>
	<path class="st0" d="M2548.6,1939.5c-8.5-118.2,7.3-156,62.2-156c54.9,0,63.4,18.3,43.9,90.2c-35.3,123.1-54.9,165.8-76.8,165.8
		C2559.6,2039.4,2554.7,2024.8,2548.6,1939.5z"/>
	<path class="st0" d="M505.7,1733.5c-67-11-171.9-63.4-171.9-84.1c0-17.1,2.4-15.8,62.2,17.1c29.3,15.8,82.9,36.6,118.2,45.1
		c34.1,8.5,63.4,19.5,63.4,25.6c0,4.9-1.2,8.5-2.4,8.5C572.8,1744.5,541.1,1739.6,505.7,1733.5z"/>
	<path class="st0" d="M166.9,1564.1c-40.2-42.7-39-119.5,3.7-169.4l31.7-37.8h290.1c286.4,0,292.5,0,316.9,26.8
		c31.7,34.1,41.4,71.9,32.9,128c-13.4,81.7-11,81.7-346.2,82.9l-299.9,1.2L166.9,1564.1z M789.7,1553.1
		c26.8-21.9,25.6-120.7-1.2-149.9c-18.3-19.5-43.9-21.9-297.4-21.9H213.2l-24.4,31.7c-30.5,39-32.9,80.4-6.1,124.3l18.3,32.9
		l285.2-1.2C702,1568.9,775.1,1565.3,789.7,1553.1z"/>
	<path class="st0" d="M207.1,1544.6c-23.2-21.9-26.8-114.6-4.9-136.5c8.5-8.5,32.9-14.6,53.6-14.6c41.4,0,78,34.1,78,74.4
		c0,13.4,7.3,19.5,21.9,15.8c11-3.7,42.7-1.2,69.5,6.1l48.8,11l-65.8,1.2c-53.6,1.2-70.7,7.3-93.9,31.7
		C282.7,1567.7,235.1,1572.6,207.1,1544.6z M292.4,1500.7c7.3-25.6-15.8-82.9-32.9-82.9c-6.1,0-19.5,13.4-30.5,30.5
		c-18.3,28-18.3,32.9,0,60.9C251,1542.1,280.2,1538.5,292.4,1500.7z"/>
	<path class="st0" d="M683.7,1556.7c-4.9-4.9-85.3-7.3-179.2-6.1c-113.4,2.4-170.6-1.2-170.6-9.8s54.9-13.4,159.7-13.4
		c86.5,0,156-4.9,152.4-9.8c-3.7-6.1-23.2-8.5-42.7-4.9c-52.4,7.3-125.5-7.3-115.8-24.4c4.9-7.3,34.1-9.8,79.2-4.9
		c47.5,6.1,71.9,3.7,71.9-4.9c0-7.3-30.5-12.2-73.1-12.2c-40.2,0-73.1-4.9-73.1-12.2s32.9-12.2,73.1-12.2c57.3,0,78-4.9,97.5-24.4
		c30.5-30.5,87.8-31.7,113.4-2.4c28,30.5,25.6,95.1-3.7,124.3C749.5,1562.8,699.5,1572.6,683.7,1556.7z M745.8,1525.1
		c19.5-19.5,18.3-60.9-2.4-89c-17.1-23.2-18.3-23.2-42.7-1.2c-30.5,28-32.9,59.7-6.1,85.3C717.8,1543.3,726.3,1544.6,745.8,1525.1z"
		/>
	<path class="st0" d="M346,1454.4c0-6.1,24.4-12.2,54.9-12.2s54.9,6.1,54.9,12.2c0,7.3-24.4,12.2-54.9,12.2S346,1461.7,346,1454.4z"
		/>
	<path class="st0" d="M333.8,1417.8c0-7.3,60.9-12.2,159.7-12.2c102.4,0,156,4.9,151.1,12.2c-4.9,7.3-70.7,12.2-159.7,12.2
		C392.4,1430,333.8,1425.1,333.8,1417.8z"/>
	<path class="st0" d="M801.9,1339.8c-13.4-34.1,4.9-58.5,40.2-53.6c26.8,2.4,34.1,9.8,34.1,34.1c0,24.4-7.3,31.7-34.1,34.1
		C820.2,1356.8,806.8,1352,801.9,1339.8z M858,1319.1c0-6.1-8.5-11-18.3-11c-18.3,0-24.4,14.6-11,28
		C838.5,1345.9,858,1334.9,858,1319.1z"/>
	<path class="st0" d="M1183.4,1331.2c-32.9-19.5-69.5-106-69.5-167c0-101.2,62.2-185.3,137.7-185.3c52.4,0,114.6,69.5,125.5,140.2
		c11,78-2.4,134.1-46.3,182.8c-29.3,34.1-45.1,42.7-81.7,42.7C1224.9,1344.7,1195.6,1338.6,1183.4,1331.2z M1283.4,1289.8
		c103.6-53.6,68.3-274.3-45.1-274.3c-46.3,0-80.4,56.1-85.3,140.2c-4.9,74.4-3.7,80.4,31.7,115.8
		C1227.3,1313,1235.8,1315.4,1283.4,1289.8z"/>
	<path class="st0" d="M1205.4,1241c-54.9-53.6-28-188.9,36.6-188.9c69.5,0,102.4,148.7,43.9,196.2
		C1249.2,1278.8,1240.7,1277.6,1205.4,1241z M1284.6,1209.4c17.1-30.5,17.1-30.5-39-39c-39-6.1-46.3-3.7-46.3,14.6
		C1199.3,1235,1261.4,1253.2,1284.6,1209.4z M1284.6,1094.8c-17.1-20.7-56.1-24.4-67-6.1c-3.7,6.1,0,8.5,11,4.9
		c9.8-3.7,28-1.2,40.2,6.1C1299.2,1116.7,1302.9,1116.7,1284.6,1094.8z"/>
	<path class="st0" d="M2632.7,1232.5c-24.4-35.3-24.4-98.7,0-145c14.6-29.3,25.6-36.6,50-32.9c18.3,2.4,34.1,9.8,36.6,17.1
		c2.4,8.5-8.5,12.2-29.3,9.8l-34.1-4.9l35.3,12.2c43.9,13.4,56.1,31.7,56.1,79.2c0,48.8-30.5,91.4-67,91.4
		C2664.4,1259.3,2642.5,1247.1,2632.7,1232.5z M2708.3,1220.3c24.4-24.4,15.8-42.7-24.4-51.2c-47.5-9.8-53.6-3.7-36.6,35.3
		C2663.2,1237.4,2685.1,1243.5,2708.3,1220.3z"/>
	<path class="st0" d="M2251.2,647.4c-17.1-29.3,28-34.1,326.7-34.1c296.2,0,316.9,1.2,313.3,21.9c-3.7,19.5-29.3,20.7-319.4,20.7
		C2398.7,656,2254.8,652.3,2251.2,647.4z"/>
	<path class="st0" d="M684.9,563.3c-39-21.9-50-58.5-28-91.4c23.2-36.6,69.5-39,103.6-4.9c23.2,23.2,40.2,24.4,466.8,24.4
		c427.8,0,444.9-1.2,465.6-24.4c28-30.5,69.5-31.7,97.5,0c45.1,50-17.1,130.4-78,98.7c-13.4-8.5-25.6-19.5-25.6-25.6
		c0-7.3-169.4-12.2-452.2-12.2c-433.9,0-453.4,1.2-482.7,24.4C716.6,580.4,712.9,580.4,684.9,563.3z M730,503.6
		c0-26.8-35.3-21.9-40.2,3.7c-3.7,17.1,1.2,21.9,18.3,18.3C720.2,523.1,730,513.4,730,503.6z M1763.6,519.5
		c4.9-3.7,2.4-14.6-4.9-24.4c-11-12.2-18.3-12.2-30.5-2.4c-9.8,7.3-13.4,18.3-9.8,24.4C1725.8,530.4,1752.7,531.6,1763.6,519.5z"/>
	<path class="st0" d="M1146.9,384.2c-24.4-26.8-26.8-76.8-6.1-97.5s76.8-18.3,95.1,3.7c13.4,15.8,73.1,18.3,397.4,18.3
		c242.6,0,382.7-4.9,382.7-12.2c0-19.5,56.1-28,84.1-12.2c34.1,18.3,35.3,91.4,2.4,109.7c-35.3,18.3-59.7,14.6-86.5-12.2
		c-23.2-23.2-40.2-24.4-393.7-24.4s-369.3,1.2-390.1,24.4C1206.6,412.2,1172.5,413.4,1146.9,384.2z M2089.1,339.1
		c0-23.2-24.4-35.3-39-20.7c-18.3,18.3-2.4,52.4,20.7,43.9C2080.5,358.6,2089.1,347.6,2089.1,339.1z M1211.5,333
		c0-13.4-7.3-24.4-17.1-24.4c-21.9,0-35.3,19.5-25.6,36.6C1182.2,367.1,1211.5,358.6,1211.5,333z"/>
	<path class="st0" d="M2291.4,397.6c-14.6-14.6-7.3-40.2,11-40.2c9.8,0,18.3,7.3,18.3,17.1C2320.7,395.1,2303.6,408.5,2291.4,397.6z
		"/>
	<path class="st0" d="M2204.9,382.9c-8.5-14.6,14.6-29.3,30.5-19.5c13.4,8.5,4.9,30.5-12.2,30.5
		C2217.1,393.9,2209.7,389,2204.9,382.9z"/>
	<path class="st0" d="M2369.4,375.6c0-9.8,8.5-18.3,18.3-18.3s18.3,8.5,18.3,18.3s-8.5,18.3-18.3,18.3S2369.4,385.4,2369.4,375.6z"
		/>
	<path class="st0" d="M2448.7,381.7c-3.7-7.3,1.2-15.8,12.2-19.5c23.2-9.8,36.6,0,24.4,18.3C2475.5,397.6,2458.4,397.6,2448.7,381.7
		z"/>
	<path class="st0" d="M2527.9,375.6c0-12.2,8.5-18.3,21.9-15.8c25.6,4.9,23.2,26.8-2.4,31.7C2535.2,393.9,2527.9,387.8,2527.9,375.6
		z"/>
	<path class="st0" d="M2609.5,386.6c-11-12.2,2.4-29.3,23.2-29.3c9.8,0,17.1,8.5,17.1,18.3C2649.8,393.9,2624.2,401.2,2609.5,386.6z
		"/>
	<path class="st0" d="M2204.9,297.6c-8.5-14.6,14.6-29.3,30.5-19.5c13.4,8.5,4.9,30.5-12.2,30.5
		C2217.1,308.6,2209.7,303.7,2204.9,297.6z"/>
	<path class="st0" d="M2286.5,294c6.1-18.3,34.1-21.9,35.3-3.7c0,7.3-8.5,14.6-20.7,15.8C2289,309.8,2282.9,304.9,2286.5,294z"/>
	<path class="st0" d="M2369.4,290.3c0-9.8,8.5-18.3,18.3-18.3s18.3,8.5,18.3,18.3s-8.5,18.3-18.3,18.3S2369.4,300.1,2369.4,290.3z"
		/>
	<path class="st0" d="M2448.7,297.6c-8.5-14.6,14.6-29.3,30.5-19.5c13.4,8.5,4.9,30.5-12.2,30.5
		C2460.8,308.6,2453.5,303.7,2448.7,297.6z"/>
	<path class="st0" d="M2534,295.2c-12.2-18.3,1.2-28,24.4-18.3c11,3.7,15.8,12.2,12.2,19.5C2560.8,312.2,2543.7,312.2,2534,295.2z"
		/>
	<path class="st0" d="M2607.1,296.4c-3.7-7.3,1.2-15.8,12.2-19.5c23.2-9.8,36.6,0,24.4,18.3C2633.9,312.2,2616.9,312.2,2607.1,296.4
		z"/>
</g>
<g>
	<g>
		<g>
			<g>
				<path class="st1" d="M93.6,69.2c-1.3,0-2.6-0.5-3.6-1.5c-13.6-13.5-35.6-13.5-49.1,0c-2,2-5.1,2-7.1,0c-2-2-2-5.1,0-7.1
					c17.5-17.5,45.9-17.5,63.3,0c2,2,2,5.1,0,7.1C96.2,68.7,94.9,69.2,93.6,69.2z"/>
			</g>
			<g>
				<path class="st1" d="M80,82.8c-1.3,0-2.6-0.5-3.6-1.5c-2.9-2.9-6.8-4.5-11-4.5s-8.1,1.6-11,4.5c-2,2-5.1,2-7.1,0s-2-5.1,0-7.1
					c4.8-4.8,11.2-7.5,18.1-7.5s13.3,2.7,18.1,7.5c2,2,2,5.1,0,7.1C82.6,82.3,81.3,82.8,80,82.8z"/>
			</g>
			<g>
				<path class="st1" d="M107.4,55.4c-1.3,0-2.6-0.5-3.6-1.5c-21.2-21.2-55.6-21.2-76.7,0c-2,2-5.1,2-7.1,0c-2-2-2-5.1,0-7.1
					C32.2,34.7,48.3,28,65.5,28s33.3,6.7,45.5,18.8c2,2,2,5.1,0,7.1C110,54.9,108.7,55.4,107.4,55.4z"/>
			</g>
		</g>
	</g>
</g>
</svg>
